<svg xmlns="http://www.w3.org/2000/svg" xmlns:xlink="http://www.w3.org/1999/xlink" width="864.688" height="421.254" viewBox="0 0 864.688 421.254">
  <defs>
    <radialGradient id="radial-gradient" cx="0.5" cy="0.5" r="0.618" gradientTransform="matrix(0.507, -0.862, 0.701, 0.413, -0.104, 0.725)" gradientUnits="objectBoundingBox">
      <stop offset="0" stop-color="#fff"/>
      <stop offset="1" stop-color="#fff" stop-opacity="0.451"/>
    </radialGradient>
  </defs>
  <g id="LogoWhite" transform="translate(-527.84 -329.336)">
    <g id="Group_1" data-name="Group 1" transform="translate(-25 -47)" opacity="0.15">
      <path id="Union_1" data-name="Union 1" d="M101.571-741.761a11,11,0,0,1,3.5-15.158,11,11,0,0,1,15.157,3.5,11,11,0,0,1-3.5,15.158,10.95,10.95,0,0,1-5.818,1.673A10.99,10.99,0,0,1,101.571-741.761ZM207.89-752.775a11,11,0,0,1,3.5-15.157,11,11,0,0,1,15.157,3.5,11,11,0,0,1-3.5,15.157,10.949,10.949,0,0,1-5.819,1.673A10.99,10.99,0,0,1,207.89-752.775Zm-169.813-.015a11,11,0,0,1,3.5-15.158,11,11,0,0,1,15.158,3.5,11,11,0,0,1-3.5,15.158,10.95,10.95,0,0,1-5.818,1.673A10.992,10.992,0,0,1,38.077-752.791Zm275.3-11.5a16.5,16.5,0,0,1,5.249-22.737,16.5,16.5,0,0,1,22.737,5.25,16.5,16.5,0,0,1-5.25,22.737,16.424,16.424,0,0,1-8.727,2.509A16.486,16.486,0,0,1,313.376-764.29Zm-171.1-2.907a11,11,0,0,1,3.5-15.158,11,11,0,0,1,15.157,3.5,11,11,0,0,1-3.5,15.158,10.95,10.95,0,0,1-5.818,1.673A10.992,10.992,0,0,1,142.277-767.2Zm102.344-7.941a16.5,16.5,0,0,1,5.25-22.737,16.5,16.5,0,0,1,22.736,5.25,16.5,16.5,0,0,1-5.249,22.736,16.424,16.424,0,0,1-8.729,2.51A16.488,16.488,0,0,1,244.62-775.138Zm-165.836-3.09a11,11,0,0,1,3.5-15.158,11,11,0,0,1,15.158,3.5,11,11,0,0,1-3.5,15.158,10.952,10.952,0,0,1-5.819,1.673A10.991,10.991,0,0,1,78.784-778.227ZM13.7-791.8a11,11,0,0,1,3.5-15.158,11,11,0,0,1,15.158,3.5,11,11,0,0,1-3.5,15.158,10.952,10.952,0,0,1-5.819,1.673A10.992,10.992,0,0,1,13.7-791.8Zm169.282-.832a11,11,0,0,1,3.5-15.158,11,11,0,0,1,15.158,3.5,11,11,0,0,1-3.5,15.158,10.951,10.951,0,0,1-5.819,1.673A10.992,10.992,0,0,1,182.984-792.634ZM289-803.3a16.5,16.5,0,0,1,5.249-22.736,16.5,16.5,0,0,1,22.737,5.249,16.5,16.5,0,0,1-5.249,22.737,16.428,16.428,0,0,1-8.728,2.509A16.487,16.487,0,0,1,289-803.3Zm-169.51-.363a11,11,0,0,1,3.5-15.158,11,11,0,0,1,15.158,3.5,11,11,0,0,1-3.5,15.158,10.952,10.952,0,0,1-5.819,1.673A10.992,10.992,0,0,1,119.49-803.663Zm100.754-10.485a16.5,16.5,0,0,1,5.249-22.737,16.5,16.5,0,0,1,22.737,5.25,16.5,16.5,0,0,1-5.25,22.737,16.424,16.424,0,0,1-8.727,2.509A16.487,16.487,0,0,1,220.244-814.148ZM49.372-815.86a16.5,16.5,0,0,1,5.25-22.737,16.5,16.5,0,0,1,22.736,5.25,16.5,16.5,0,0,1-5.249,22.736,16.423,16.423,0,0,1-8.729,2.51A16.488,16.488,0,0,1,49.372-815.86Zm105.79-11.862a16.5,16.5,0,0,1,5.249-22.737,16.5,16.5,0,0,1,22.737,5.249,16.5,16.5,0,0,1-5.25,22.737,16.423,16.423,0,0,1-8.728,2.51A16.487,16.487,0,0,1,155.162-827.722Zm174.544-1.014a16.5,16.5,0,0,1,5.25-22.737,16.5,16.5,0,0,1,22.736,5.25,16.5,16.5,0,0,1-5.249,22.736,16.423,16.423,0,0,1-8.729,2.51A16.489,16.489,0,0,1,329.706-828.736Zm-341.441-3.771a11,11,0,0,1,3.5-15.158,11,11,0,0,1,15.157,3.5,11,11,0,0,1-3.5,15.158A10.95,10.95,0,0,1-2.4-827.335,10.992,10.992,0,0,1-11.735-832.507ZM90.079-841.3a16.5,16.5,0,0,1,5.249-22.737,16.5,16.5,0,0,1,22.737,5.249,16.5,16.5,0,0,1-5.25,22.737,16.424,16.424,0,0,1-8.728,2.51A16.487,16.487,0,0,1,90.079-841.3Zm174.544-1.014a16.5,16.5,0,0,1,5.249-22.737,16.5,16.5,0,0,1,22.737,5.249,16.5,16.5,0,0,1-5.249,22.737,16.425,16.425,0,0,1-8.728,2.51A16.488,16.488,0,0,1,264.623-842.31Zm-68.756-10.848a16.5,16.5,0,0,1,5.249-22.737,16.5,16.5,0,0,1,22.737,5.249,16.5,16.5,0,0,1-5.249,22.737,16.426,16.426,0,0,1-8.728,2.51A16.487,16.487,0,0,1,195.868-853.158ZM25-854.87a16.5,16.5,0,0,1,5.249-22.737,16.5,16.5,0,0,1,22.737,5.25,16.5,16.5,0,0,1-5.25,22.737,16.424,16.424,0,0,1-8.727,2.509A16.486,16.486,0,0,1,25-854.87Zm351.3-1.21a11,11,0,0,1,3.5-15.157,11,11,0,0,1,15.158,3.5,11,11,0,0,1-3.5,15.158,10.949,10.949,0,0,1-5.818,1.673A10.992,10.992,0,0,1,376.3-856.08Zm-245.51-10.652a16.5,16.5,0,0,1,5.249-22.736,16.5,16.5,0,0,1,22.737,5.249,16.5,16.5,0,0,1-5.25,22.737,16.424,16.424,0,0,1-8.727,2.509A16.486,16.486,0,0,1,130.785-866.732Zm174.544-1.014a16.5,16.5,0,0,1,5.25-22.736,16.5,16.5,0,0,1,22.736,5.249,16.5,16.5,0,0,1-5.249,22.737,16.428,16.428,0,0,1-8.728,2.509A16.488,16.488,0,0,1,305.329-867.747Zm-342.5-5.468a11,11,0,0,1,3.5-15.157,11,11,0,0,1,15.158,3.5,11,11,0,0,1-3.5,15.158,10.951,10.951,0,0,1-5.819,1.673A10.991,10.991,0,0,1-37.171-873.214ZM65.7-880.306a16.5,16.5,0,0,1,5.249-22.737,16.5,16.5,0,0,1,22.737,5.25,16.5,16.5,0,0,1-5.249,22.736,16.424,16.424,0,0,1-8.729,2.51A16.487,16.487,0,0,1,65.7-880.306Zm174.544-1.014a16.5,16.5,0,0,1,5.25-22.737,16.5,16.5,0,0,1,22.736,5.25,16.5,16.5,0,0,1-5.249,22.736,16.424,16.424,0,0,1-8.729,2.51A16.489,16.489,0,0,1,240.247-881.32Zm-68.755-10.848A16.5,16.5,0,0,1,176.74-914.9a16.5,16.5,0,0,1,22.737,5.25,16.5,16.5,0,0,1-5.249,22.736,16.423,16.423,0,0,1-8.729,2.51A16.488,16.488,0,0,1,171.491-892.168Zm180.428-2.921a11,11,0,0,1,3.5-15.158,11,11,0,0,1,15.157,3.5,11,11,0,0,1-3.5,15.158,10.95,10.95,0,0,1-5.818,1.673A10.992,10.992,0,0,1,351.919-895.09ZM4.065-897.8a11,11,0,0,1,3.5-15.158,11,11,0,0,1,15.158,3.5,11,11,0,0,1-3.5,15.158,10.951,10.951,0,0,1-5.819,1.673A10.991,10.991,0,0,1,4.065-897.8Zm102.344-7.94a16.5,16.5,0,0,1,5.249-22.738,16.5,16.5,0,0,1,22.737,5.25,16.5,16.5,0,0,1-5.249,22.737,16.424,16.424,0,0,1-8.729,2.51A16.487,16.487,0,0,1,106.409-905.742Zm174.544-1.014a16.5,16.5,0,0,1,5.25-22.737,16.5,16.5,0,0,1,22.737,5.249,16.5,16.5,0,0,1-5.25,22.737,16.424,16.424,0,0,1-8.728,2.51A16.489,16.489,0,0,1,280.953-906.756Zm-65.082-13.575a16.5,16.5,0,0,1,5.249-22.736,16.5,16.5,0,0,1,22.737,5.249,16.5,16.5,0,0,1-5.25,22.737,16.425,16.425,0,0,1-8.727,2.509A16.487,16.487,0,0,1,215.871-920.331Zm176.755-.2a11,11,0,0,1,3.5-15.157,11,11,0,0,1,15.158,3.5,11,11,0,0,1-3.5,15.158,10.948,10.948,0,0,1-5.818,1.673A10.991,10.991,0,0,1,392.626-920.526ZM44.771-923.238a11,11,0,0,1,3.5-15.158,11,11,0,0,1,15.158,3.5,11,11,0,0,1-3.5,15.158,10.95,10.95,0,0,1-5.818,1.673A10.992,10.992,0,0,1,44.771-923.238Zm102.343-7.941a16.5,16.5,0,0,1,5.25-22.736,16.5,16.5,0,0,1,22.736,5.249,16.5,16.5,0,0,1-5.249,22.737,16.428,16.428,0,0,1-8.728,2.509A16.488,16.488,0,0,1,147.115-931.179Zm175.075-.166a16.5,16.5,0,0,1,5.249-22.737,16.5,16.5,0,0,1,22.737,5.249,16.5,16.5,0,0,1-5.25,22.737,16.421,16.421,0,0,1-8.728,2.51A16.487,16.487,0,0,1,322.19-931.344Zm-342.5-5.468a11,11,0,0,1,3.5-15.158,11,11,0,0,1,15.158,3.5,11,11,0,0,1-3.5,15.158,10.95,10.95,0,0,1-5.818,1.673A10.992,10.992,0,0,1-20.311-936.812ZM81.5-945.6a16.5,16.5,0,0,1,5.25-22.736,16.5,16.5,0,0,1,22.736,5.249,16.5,16.5,0,0,1-5.248,22.737,16.43,16.43,0,0,1-8.729,2.51A16.486,16.486,0,0,1,81.5-945.6Zm175.075-.166a16.5,16.5,0,0,1,5.249-22.737,16.5,16.5,0,0,1,22.737,5.25,16.5,16.5,0,0,1-5.249,22.736,16.425,16.425,0,0,1-8.729,2.51A16.487,16.487,0,0,1,256.577-945.767Zm176.755-.2a11,11,0,0,1,3.5-15.158,11,11,0,0,1,15.158,3.5,11,11,0,0,1-3.5,15.158,10.952,10.952,0,0,1-5.819,1.673A10.991,10.991,0,0,1,433.332-945.962ZM191.495-959.341a16.5,16.5,0,0,1,5.249-22.737,16.5,16.5,0,0,1,22.737,5.249,16.5,16.5,0,0,1-5.249,22.737,16.426,16.426,0,0,1-8.728,2.51A16.487,16.487,0,0,1,191.495-959.341Zm176.755-.2a11,11,0,0,1,3.5-15.158,11,11,0,0,1,15.158,3.5,11,11,0,0,1-3.5,15.158,10.952,10.952,0,0,1-5.819,1.673A10.992,10.992,0,0,1,368.249-959.536ZM20.395-962.249a11,11,0,0,1,3.5-15.158,11,11,0,0,1,15.158,3.5,11,11,0,0,1-3.5,15.157,10.947,10.947,0,0,1-5.819,1.674A10.992,10.992,0,0,1,20.395-962.249Zm102.344-7.94a16.5,16.5,0,0,1,5.249-22.737,16.5,16.5,0,0,1,22.737,5.249,16.5,16.5,0,0,1-5.25,22.737,16.427,16.427,0,0,1-8.728,2.509A16.487,16.487,0,0,1,122.739-970.188ZM297.284-971.2a16.5,16.5,0,0,1,5.249-22.736,16.5,16.5,0,0,1,22.737,5.249,16.5,16.5,0,0,1-5.249,22.738,16.426,16.426,0,0,1-8.728,2.509A16.488,16.488,0,0,1,297.284-971.2ZM232.2-984.777a16.5,16.5,0,0,1,5.249-22.736,16.5,16.5,0,0,1,22.737,5.249,16.5,16.5,0,0,1-5.249,22.737,16.427,16.427,0,0,1-8.728,2.509A16.488,16.488,0,0,1,232.2-984.777Zm176.755-.2a11,11,0,0,1,3.5-15.158,11,11,0,0,1,15.158,3.5,11,11,0,0,1-3.5,15.158A10.949,10.949,0,0,1,418.3-979.8,10.992,10.992,0,0,1,408.956-984.973ZM61.1-987.684a11,11,0,0,1,3.5-15.158,11,11,0,0,1,15.158,3.5,11,11,0,0,1-3.5,15.158,10.953,10.953,0,0,1-5.819,1.673A10.992,10.992,0,0,1,61.1-987.684Zm276.888-8.955a16.5,16.5,0,0,1,5.25-22.736,16.5,16.5,0,0,1,22.736,5.249,16.5,16.5,0,0,1-5.249,22.737A16.427,16.427,0,0,1,352-988.88,16.488,16.488,0,0,1,337.99-996.639Zm-170.871-1.712a16.5,16.5,0,0,1,5.249-22.737,16.5,16.5,0,0,1,22.737,5.25,16.5,16.5,0,0,1-5.249,22.736,16.424,16.424,0,0,1-8.729,2.51A16.488,16.488,0,0,1,167.118-998.351ZM98.363-1009.2a16.5,16.5,0,0,1,5.249-22.737,16.5,16.5,0,0,1,22.737,5.25,16.5,16.5,0,0,1-5.249,22.736,16.425,16.425,0,0,1-8.729,2.51A16.487,16.487,0,0,1,98.363-1009.2Zm174.544-1.014a16.5,16.5,0,0,1,5.25-22.737,16.5,16.5,0,0,1,22.736,5.25,16.5,16.5,0,0,1-5.249,22.736,16.424,16.424,0,0,1-8.729,2.51A16.488,16.488,0,0,1,272.907-1010.213Zm177.285.653a11,11,0,0,1,3.5-15.158,11,11,0,0,1,15.158,3.5,11,11,0,0,1-3.5,15.157,10.95,10.95,0,0,1-5.819,1.673A10.991,10.991,0,0,1,450.192-1009.561Zm-71.5-12.515a16.5,16.5,0,0,1,5.249-22.737,16.5,16.5,0,0,1,22.737,5.25,16.5,16.5,0,0,1-5.25,22.736,16.421,16.421,0,0,1-8.728,2.51A16.487,16.487,0,0,1,378.7-1022.075Zm-170.872-1.712a16.5,16.5,0,0,1,5.25-22.737,16.5,16.5,0,0,1,22.736,5.249,16.5,16.5,0,0,1-5.249,22.737,16.425,16.425,0,0,1-8.728,2.51A16.489,16.489,0,0,1,207.824-1023.787Zm-171.1-2.908a11,11,0,0,1,3.5-15.158,11,11,0,0,1,15.158,3.5,11,11,0,0,1-3.5,15.157,10.952,10.952,0,0,1-5.819,1.673A10.991,10.991,0,0,1,36.725-1026.695Zm276.889-8.954a16.5,16.5,0,0,1,5.249-22.737,16.5,16.5,0,0,1,22.737,5.249,16.5,16.5,0,0,1-5.25,22.737,16.422,16.422,0,0,1-8.728,2.51A16.487,16.487,0,0,1,313.614-1035.649Zm-170.872-1.713a16.5,16.5,0,0,1,5.25-22.736,16.5,16.5,0,0,1,22.736,5.249,16.5,16.5,0,0,1-5.249,22.737,16.428,16.428,0,0,1-8.728,2.509A16.488,16.488,0,0,1,142.742-1037.362Zm-68.756-10.848a16.5,16.5,0,0,1,5.249-22.736,16.5,16.5,0,0,1,22.737,5.249,16.5,16.5,0,0,1-5.249,22.737A16.428,16.428,0,0,1,88-1040.451,16.488,16.488,0,0,1,73.986-1048.209Zm174.545-1.014a16.5,16.5,0,0,1,5.249-22.736,16.5,16.5,0,0,1,22.737,5.249,16.5,16.5,0,0,1-5.25,22.737,16.425,16.425,0,0,1-8.727,2.509A16.486,16.486,0,0,1,248.531-1049.224Zm176.225-1.043a11,11,0,0,1,3.5-15.158,11,11,0,0,1,15.158,3.5,11,11,0,0,1-3.5,15.158,10.952,10.952,0,0,1-5.819,1.673A10.992,10.992,0,0,1,424.756-1050.267Zm-70.436-10.819a16.5,16.5,0,0,1,5.249-22.736,16.5,16.5,0,0,1,22.737,5.249,16.5,16.5,0,0,1-5.249,22.737,16.428,16.428,0,0,1-8.728,2.509A16.487,16.487,0,0,1,354.32-1061.086ZM183.448-1062.8a16.5,16.5,0,0,1,5.25-22.737,16.5,16.5,0,0,1,22.737,5.25,16.5,16.5,0,0,1-5.25,22.736,16.423,16.423,0,0,1-8.728,2.51A16.489,16.489,0,0,1,183.448-1062.8Zm-65.082-13.574a16.5,16.5,0,0,1,5.249-22.737,16.5,16.5,0,0,1,22.737,5.249,16.5,16.5,0,0,1-5.25,22.737,16.423,16.423,0,0,1-8.728,2.51A16.487,16.487,0,0,1,118.366-1076.371Zm175.164-2.74a11,11,0,0,1,3.5-15.158,11,11,0,0,1,15.158,3.5,11,11,0,0,1-3.5,15.158,10.95,10.95,0,0,1-5.818,1.673A10.992,10.992,0,0,1,293.531-1079.111Zm-63.493-11.03a11,11,0,0,1,3.5-15.158,11,11,0,0,1,15.157,3.5,11,11,0,0,1-3.5,15.158,10.949,10.949,0,0,1-5.818,1.673A10.994,10.994,0,0,1,230.037-1090.141Zm169.282-.832a11,11,0,0,1,3.5-15.158,11,11,0,0,1,15.157,3.5,11,11,0,0,1-3.5,15.158,10.95,10.95,0,0,1-5.818,1.673A10.992,10.992,0,0,1,399.319-1090.973Zm-240.247-10.835a16.5,16.5,0,0,1,5.249-22.736,16.5,16.5,0,0,1,22.737,5.249,16.5,16.5,0,0,1-5.25,22.737,16.425,16.425,0,0,1-8.727,2.509A16.487,16.487,0,0,1,159.072-1101.808Zm175.164-2.74a11,11,0,0,1,3.5-15.157,11,11,0,0,1,15.157,3.5,11,11,0,0,1-3.5,15.158,10.951,10.951,0,0,1-5.818,1.672A10.992,10.992,0,0,1,334.237-1104.547ZM93.99-1115.382a16.5,16.5,0,0,1,5.249-22.737,16.5,16.5,0,0,1,22.737,5.25,16.5,16.5,0,0,1-5.249,22.736,16.424,16.424,0,0,1-8.729,2.51A16.487,16.487,0,0,1,93.99-1115.382Zm176.755-.2a11,11,0,0,1,3.5-15.158,11,11,0,0,1,15.158,3.5,11,11,0,0,1-3.5,15.158,10.952,10.952,0,0,1-5.819,1.673A10.992,10.992,0,0,1,270.744-1115.577Zm104.2-14.406a11,11,0,0,1,3.5-15.158,11,11,0,0,1,15.158,3.5,11,11,0,0,1-3.5,15.158,10.948,10.948,0,0,1-5.819,1.673A10.991,10.991,0,0,1,374.944-1129.983ZM205.132-1130a11,11,0,0,1,3.5-15.157,11,11,0,0,1,15.158,3.5,11,11,0,0,1-3.5,15.157,10.95,10.95,0,0,1-5.818,1.673A10.991,10.991,0,0,1,205.132-1130Zm106.319-11.014a11,11,0,0,1,3.5-15.157,11,11,0,0,1,15.158,3.5,11,11,0,0,1-3.5,15.158,10.951,10.951,0,0,1-5.818,1.672A10.991,10.991,0,0,1,311.45-1141.014Z" transform="translate(768.789 1534.18)" fill="url(#radial-gradient)"/>
    </g>
    <path id="LogoWhite-2" data-name="LogoWhite" d="M15.84,0H72.864c27.456,0,45.584-11.792,45.584-33.792v-.352c0-16.72-10.032-24.992-24.464-29.92,9.152-4.752,17.6-12.672,17.6-27.456v-.352a27.592,27.592,0,0,0-8.272-20.416C96.272-119.328,85.184-123.2,71.1-123.2H15.84Zm74.1-88c0,11.264-9.328,16.72-23.232,16.72H37.136v-32.736H68.288c13.9,0,21.648,5.984,21.648,15.664ZM96.8-36.432v.352c0,11.088-8.976,16.9-23.76,16.9h-35.9V-52.976h34.32C88.528-52.976,96.8-46.816,96.8-36.432ZM219.3,2.112c37.84,0,64.592-29.04,64.592-63.712v-.352c0-34.672-26.4-63.36-64.24-63.36S155.056-96.272,155.056-61.6v.352C155.056-26.576,181.456,2.112,219.3,2.112Zm.352-20.064c-24.464,0-41.888-19.712-41.888-43.648v-.352c0-23.936,17.072-43.472,41.536-43.472S261.184-85.536,261.184-61.6v.352C261.184-37.312,244.112-17.952,219.648-17.952ZM327.712,0H349.36V-42.944h27.1L406.736,0h25.7L399.168-46.64c17.072-4.928,29.216-17.072,29.216-37.312V-84.3c0-10.736-3.7-19.888-10.208-26.576-7.92-7.744-20.064-12.32-35.552-12.32H327.712ZM349.36-62.128v-41.36h31.5c16.016,0,25.52,7.216,25.52,20.416v.352c0,12.5-9.856,20.592-25.344,20.592ZM472.56,0H518.5c38.72,0,65.472-26.928,65.472-61.6v-.352c0-34.672-26.752-61.248-65.472-61.248H472.56ZM518.5-103.488c25.872,0,42.768,17.776,42.768,41.888v.352c0,24.112-16.9,41.536-42.768,41.536H494.208v-83.776ZM608.608,0h22.176l12.672-29.744h58.256L714.208,0h22.88L682.88-124.08H662.816Zm42.768-48.928,21.12-49.28,21.3,49.28ZM775.808,0h21.648V-42.944h27.1L854.832,0h25.7L847.264-46.64c17.072-4.928,29.216-17.072,29.216-37.312V-84.3c0-10.736-3.7-19.888-10.208-26.576-7.92-7.744-20.064-12.32-35.552-12.32H775.808Zm21.648-62.128v-41.36h31.5c16.016,0,25.52,7.216,25.52,20.416v.352c0,12.5-9.856,20.592-25.344,20.592Z" transform="translate(512 602)" fill="#fff"/>
  </g>
</svg>
